<?xml version="1.0" standalone="no"?>
<!DOCTYPE svg PUBLIC "-//W3C//DTD SVG 20010904//EN"
 "http://www.w3.org/TR/2001/REC-SVG-20010904/DTD/svg10.dtd">
<svg version="1.0" xmlns="http://www.w3.org/2000/svg"
 width="700.000000pt" height="700.000000pt" viewBox="0 0 700.000000 700.000000"
 preserveAspectRatio="xMidYMid meet">
<metadata>
Created by potrace 1.14, written by Peter Selinger 2001-2017
</metadata>
<g transform="translate(0.000000,700.000000) scale(0.100000,-0.100000)"
fill="#000000" stroke="none">
<path d="M3476 6787 c-10 -17 -42 -79 -71 -137 -125 -251 -193 -481 -229 -777
-13 -107 -15 -458 -3 -498 3 -11 9 -42 12 -70 16 -146 73 -359 145 -540 154
-388 442 -752 796 -1008 259 -187 628 -338 954 -392 19 -3 46 -7 60 -10 48 -8
165 -17 268 -20 92 -3 103 -2 97 13 -3 9 -66 120 -139 247 -74 126 -143 246
-153 265 -32 57 -281 487 -342 590 -30 52 -64 111 -74 130 -11 19 -43 76 -72
125 -29 50 -62 106 -73 125 -10 19 -127 222 -259 450 -132 228 -247 429 -257
445 -9 17 -21 37 -26 45 -27 43 -90 151 -90 155 0 3 -11 24 -26 46 -14 22 -34
57 -46 77 -11 20 -46 82 -78 137 -32 55 -68 119 -81 141 -172 301 -285 494
-289 494 -3 0 -13 -15 -24 -33z"/>
<path d="M2096 4396 c-31 -52 -56 -98 -56 -101 0 -3 -9 -18 -19 -33 -10 -15
-104 -175 -208 -357 -105 -181 -282 -490 -395 -685 -315 -545 -749 -1297 -976
-1690 -112 -195 -227 -393 -254 -439 l-49 -84 153 6 c160 7 180 9 318 33 355
63 693 212 990 437 97 74 282 251 361 345 167 201 319 468 403 710 45 129 63
197 92 341 14 72 17 93 32 231 9 79 8 310 -2 405 -23 231 -84 469 -174 682
-45 107 -142 293 -153 293 -4 0 -33 -42 -63 -94z"/>
<path d="M4698 2205 c-2 -2 -39 -6 -83 -10 -44 -3 -89 -8 -100 -11 -11 -2 -33
-6 -50 -9 -272 -45 -537 -140 -762 -272 -133 -78 -269 -174 -358 -252 -184
-162 -377 -395 -484 -583 l-32 -58 2015 0 2016 0 -56 93 c-368 607 -1014 1018
-1719 1093 -53 6 -382 13 -387 9z"/>
</g>
</svg>
